<svg xmlns="http://www.w3.org/2000/svg" xmlns:xlink="http://www.w3.org/1999/xlink" viewBox="0,0,256,256" width="48px" height="48px"><g fill="#2f80ed" fill-rule="nonzero" stroke="none" stroke-width="1" stroke-linecap="butt" stroke-linejoin="miter" stroke-miterlimit="10" stroke-dasharray="" stroke-dashoffset="0" font-family="none" font-weight="none" font-size="none" text-anchor="none" style="mix-blend-mode: normal"><g transform="scale(5.33333,5.33333)"><path d="M18.5,5c-1.91495,0 -3.5,1.58505 -3.5,3.5v4.5h-5.5c-3.01977,0 -5.5,2.48023 -5.5,5.5v19c0,3.01977 2.48023,5.5 5.5,5.5h29c3.01977,0 5.5,-2.48023 5.5,-5.5v-19c0,-3.01977 -2.48023,-5.5 -5.5,-5.5h-5.5v-4.5c0,-1.91495 -1.58505,-3.5 -3.5,-3.5zM18.5,8h11c0.29504,0 0.5,0.20495 0.5,0.5v4.5h-12v-4.5c0,-0.29505 0.20496,-0.5 0.5,-0.5zM9.5,16h29c1.39823,0 2.5,1.10177 2.5,2.5v4.5h-5v-0.5c0,-0.828 -0.672,-1.5 -1.5,-1.5h-3c-0.828,0 -1.5,0.672 -1.5,1.5v0.5h-12v-0.5c0,-0.828 -0.672,-1.5 -1.5,-1.5h-3c-0.828,0 -1.5,0.672 -1.5,1.5v0.5h-5v-4.5c0,-1.39823 1.10177,-2.5 2.5,-2.5zM7,26h5v0.5c0,0.828 0.672,1.5 1.5,1.5h3c0.828,0 1.5,-0.672 1.5,-1.5v-0.5h12v0.5c0,0.828 0.672,1.5 1.5,1.5h3c0.828,0 1.5,-0.672 1.5,-1.5v-0.5h5v11.5c0,1.39823 -1.10177,2.5 -2.5,2.5h-29c-1.39823,0 -2.5,-1.10177 -2.5,-2.5z"></path></g></g></svg>